<?xml version="1.0" encoding="UTF-8"?>
<svg version="1.1" xmlns="http://www.w3.org/2000/svg" width="209" height="134">
<path d="M0 0 C66 0 132 0 200 0 C200 1.98 200 3.96 200 6 C168.32 9.96 136.64 13.92 104 18 C103.67 22.62 103.34 27.24 103 32 C104.11173584 31.71914551 105.22347168 31.43829102 106.36889648 31.14892578 C114.18326044 29.4184782 122.1624906 28.60146034 130.09765625 27.6171875 C131.8592771 27.39607651 133.62086822 27.17472847 135.38243103 26.95315552 C139.06100254 26.49148738 142.73994994 26.03297305 146.41918945 25.57666016 C151.11932146 24.99343284 155.81836089 24.40187317 160.5171442 23.80788994 C164.14994383 23.34967853 167.78331442 22.89613149 171.41686821 22.44394302 C173.14929138 22.22774113 174.88153054 22.01005909 176.61357307 21.7908287 C179.03877295 21.484528 181.46468193 21.18459602 183.89086914 20.88623047 C184.94860535 20.75068253 184.94860535 20.75068253 186.02770996 20.61239624 C190.78526706 20.03641061 195.13441307 20 200 20 C200 28.58 200 37.16 200 46 C168.32 49.96 136.64 53.92 104 58 C104 62.29 104 66.58 104 71 C105.08470581 70.86219116 106.16941162 70.72438232 107.2869873 70.58239746 C117.52628152 69.28218422 127.76622728 67.98721572 138.00682831 66.69733429 C143.27116451 66.03408123 148.5352567 65.36900442 153.79882812 64.69970703 C158.88166568 64.05346017 163.96509528 63.41207285 169.04896545 62.77400208 C170.9851706 62.53013358 172.92115887 62.28453646 174.85691833 62.03715515 C177.57527623 61.69006595 180.29435133 61.34921868 183.01367188 61.00976562 C183.80777466 60.9069075 184.60187744 60.80404938 185.42004395 60.69807434 C190.31906844 60.09465839 195.06345472 59.90939064 200 60 C200.02886751 64.14581887 200.04675327 68.29161216 200.0625 72.4375 C200.07087891 73.62150391 200.07925781 74.80550781 200.08789062 76.02539062 C200.09111328 77.15009766 200.09433594 78.27480469 200.09765625 79.43359375 C200.10289307 80.47572021 200.10812988 81.51784668 200.11352539 82.59155273 C200 85 200 85 199 86 C196.05574451 86.45490876 193.12184194 86.85218478 190.16577148 87.21508789 C188.77566864 87.3908712 188.77566864 87.3908712 187.35748291 87.57020569 C184.27918386 87.95843241 181.20015836 88.34055277 178.12109375 88.72265625 C175.9925525 88.989896 173.86405874 89.25751429 171.73561096 89.52549744 C166.12185881 90.23126032 160.50747337 90.93185673 154.89294434 91.63140869 C149.16847545 92.34557698 143.44461527 93.06458875 137.72070312 93.78320312 C126.48106189 95.1935651 115.24074624 96.59847426 104 98 C104 102.29 104 106.58 104 111 C105.08470581 110.86219116 106.16941162 110.72438232 107.2869873 110.58239746 C117.52628152 109.28218422 127.76622728 107.98721572 138.00682831 106.69733429 C143.27116451 106.03408123 148.5352567 105.36900442 153.79882812 104.69970703 C158.88166568 104.05346017 163.96509528 103.41207285 169.04896545 102.77400208 C170.9851706 102.53013358 172.92115887 102.28453646 174.85691833 102.03715515 C177.57527623 101.69006595 180.29435133 101.34921868 183.01367188 101.00976562 C183.80777466 100.9069075 184.60187744 100.80404938 185.42004395 100.69807434 C186.17148682 100.60551865 186.92292969 100.51296295 187.69714355 100.41760254 C188.65949543 100.29592587 188.65949543 100.29592587 189.64128876 100.17179108 C193.08554421 99.92093699 196.54662145 100 200 100 C200 109.9 200 119.8 200 130 C134 130 68 130 0 130 C0 128.02 0 126.04 0 124 C32.01 120.04 64.02 116.08 97 112 C97.33 107.38 97.66 102.76 98 98 C96.02 98.99 96.02 98.99 94 100 C91.13876343 100.34141541 91.13876343 100.34141541 87.80224609 100.49584961 C80.29796522 100.94074185 72.88231667 101.80528963 65.43019485 102.77249336 C63.10021309 103.07468739 60.76961655 103.37168589 58.43881226 103.66746521 C52.66173862 104.40147979 46.88561488 105.14283726 41.10974121 105.88623047 C36.19738732 106.5184357 31.28456424 107.14670199 26.37098312 107.76930046 C24.08840483 108.06011963 21.80662367 108.35670234 19.52481079 108.65345764 C18.1150498 108.83251322 16.70525146 109.01127514 15.29541016 109.18969727 C14.07632965 109.34656509 12.85724915 109.50343292 11.60122681 109.66505432 C7.74916531 110.02332983 3.868687 110 0 110 C0 101.42 0 92.84 0 84 C29.04 80.37 58.08 76.74 88 73 C88.33 68.38 88.66 63.76 89 59 C87.85217041 59.28536621 86.70434082 59.57073242 85.52172852 59.86474609 C78.31089529 61.46208645 70.97439237 62.25665891 63.65234375 63.1640625 C62.0700849 63.36275354 60.48785577 63.56168148 58.90565491 63.76083374 C55.60371009 64.17542217 52.30139212 64.58686189 48.9987793 64.99609375 C44.78291843 65.51878677 40.56815615 66.04981335 36.35364437 66.58326149 C33.09142982 66.99515256 29.82864484 67.40237274 26.56567574 67.80823898 C25.01188213 68.00211256 23.45827196 68.19746263 21.90485954 68.39436722 C19.72872112 68.66954042 17.55188115 68.93832855 15.37475586 69.20556641 C14.14059433 69.35941803 12.9064328 69.51326965 11.63487244 69.67178345 C7.77075977 70.02069961 3.87983366 70 0 70 C0 61.42 0 52.84 0 44 C29.04 40.37 58.08 36.74 88 33 C88.33 28.38 88.66 23.76 89 19 C87.27825562 19.42804932 87.27825562 19.42804932 85.52172852 19.86474609 C78.31089529 21.46208645 70.97439237 22.25665891 63.65234375 23.1640625 C62.0700849 23.36275354 60.48785577 23.56168148 58.90565491 23.76083374 C55.60371009 24.17542217 52.30139212 24.58686189 48.9987793 24.99609375 C44.78291843 25.51878677 40.56815615 26.04981335 36.35364437 26.58326149 C33.09142982 26.99515256 29.82864484 27.40237274 26.56567574 27.80823898 C25.01188213 28.00211256 23.45827196 28.19746263 21.90485954 28.39436722 C19.72872112 28.66954042 17.55188115 28.93832855 15.37475586 29.20556641 C14.14059433 29.35941803 12.9064328 29.51326965 11.63487244 29.67178345 C7.77075977 30.02069961 3.87983366 30 0 30 C0 21.09 0 12.18 0 3 C-0.66 2.67 -1.32 2.34 -2 2 C-1.34 2 -0.68 2 0 2 C0 1.34 0 0.68 0 0 Z M95 18 C93.63467451 19.13701597 93.63467451 19.13701597 93.90234375 22.16015625 C93.91394531 23.44792969 93.92554687 24.73570313 93.9375 26.0625 C93.94652344 27.35285156 93.95554687 28.64320312 93.96484375 29.97265625 C93.97644531 30.97167969 93.98804687 31.97070312 94 33 C95.32 32.67 96.64 32.34 98 32 C98 27.38 98 22.76 98 18 C97.01 18 96.02 18 95 18 Z M95 58 C93.63467451 59.13701597 93.63467451 59.13701597 93.90234375 62.16015625 C93.91394531 63.44792969 93.92554687 64.73570313 93.9375 66.0625 C93.94652344 67.35285156 93.95554687 68.64320312 93.96484375 69.97265625 C93.97644531 70.97167969 93.98804687 71.97070312 94 73 C95.32 72.67 96.64 72.34 98 72 C98 67.38 98 62.76 98 58 C97.01 58 96.02 58 95 58 Z " fill="#FEA302" transform="translate(5,3)"/>
<path d="M0 0 C0 9.9 0 19.8 0 30 C-66 30 -132 30 -200 30 C-200 28.02 -200 26.04 -200 24 C-188.78593733 22.57786235 -177.57127782 21.1605348 -166.3558569 19.74914646 C-161.1466918 19.09345747 -155.93773704 18.43618639 -150.72924805 17.77514648 C-145.69170505 17.13586405 -140.65362957 16.50093753 -135.61517525 15.86887932 C-133.70431988 15.62842034 -131.79365287 15.38645915 -129.88319206 15.14288521 C-119.80854928 13.85944694 -109.7976186 12.72666292 -99.65065002 12.2283783 C-97.07870719 12.29330644 -97.07870719 12.29330644 -96 11 C-93.31170658 10.575634 -90.63548982 10.20896113 -87.93530273 9.87670898 C-87.08969284 9.76927368 -86.24408295 9.66183838 -85.37284851 9.55114746 C-82.56029794 9.195069 -79.74699585 8.84537585 -76.93359375 8.49609375 C-74.98117678 8.25113512 -73.02878965 8.00593851 -71.07643127 7.76051331 C-66.97342345 7.24577883 -62.87003219 6.73424254 -58.76635742 6.22485352 C-53.51895059 5.57319424 -48.27262245 4.91327395 -43.0265646 4.25085354 C-38.98885059 3.74202688 -34.9505641 3.23786701 -30.91209602 2.73506355 C-28.97871455 2.49374259 -27.04551807 2.2509345 -25.1125164 2.00658989 C-22.39906554 1.6642605 -19.68489748 1.32829203 -16.97045898 0.99389648 C-16.17792725 0.89260941 -15.38539551 0.79132233 -14.56884766 0.68696594 C-13.81884995 0.59585541 -13.06885223 0.50474487 -12.29612732 0.41087341 C-11.65585822 0.33105445 -11.01558912 0.25123549 -10.35591793 0.16899776 C-6.91233407 -0.07802186 -3.45243226 0 0 0 Z " fill="#080808" transform="translate(205,103)"/>
<path d="M0 0 C0.02886751 4.14581887 0.04675327 8.29161216 0.0625 12.4375 C0.07087891 13.62150391 0.07925781 14.80550781 0.08789062 16.02539062 C0.09111328 17.15009766 0.09433594 18.27480469 0.09765625 19.43359375 C0.10289307 20.47572021 0.10812988 21.51784668 0.11352539 22.59155273 C0 25 0 25 -1 26 C-3.65239557 26.42426437 -6.29260822 26.79093991 -8.95703125 27.12329102 C-9.79128128 27.23072632 -10.62553131 27.33816162 -11.48506165 27.44885254 C-14.2603288 27.80496603 -17.03635973 28.15466907 -19.8125 28.50390625 C-21.74009891 28.74888509 -23.66767018 28.99408147 -25.59521484 29.23948669 C-29.64693875 29.7542606 -33.69905903 30.26576956 -37.75146484 30.77514648 C-42.92934297 31.42634115 -48.10604091 32.08643072 -53.28245544 32.74914646 C-57.26953637 33.25842036 -61.25727002 33.76242791 -65.24520874 34.26493645 C-67.15267692 34.5060167 -69.05992834 34.74881865 -70.96694946 34.99341011 C-73.64658744 35.33638366 -76.32704175 35.67211514 -79.0078125 36.00610352 C-79.78739822 36.10739059 -80.56698395 36.20867767 -81.37019348 36.31303406 C-86.61495838 36.95621065 -91.71546922 37.08335913 -97 37 C-97.02886751 32.85418113 -97.04675327 28.70838784 -97.0625 24.5625 C-97.07087891 23.37849609 -97.07925781 22.19449219 -97.08789062 20.97460938 C-97.09111328 19.84990234 -97.09433594 18.72519531 -97.09765625 17.56640625 C-97.10289307 16.52427979 -97.10812988 15.48215332 -97.11352539 14.40844727 C-97 12 -97 12 -96 11 C-93.31170658 10.575634 -90.63548982 10.20896113 -87.93530273 9.87670898 C-87.08969284 9.76927368 -86.24408295 9.66183838 -85.37284851 9.55114746 C-82.56029794 9.195069 -79.74699585 8.84537585 -76.93359375 8.49609375 C-74.98117678 8.25113512 -73.02878965 8.00593851 -71.07643127 7.76051331 C-66.97342345 7.24577883 -62.87003219 6.73424254 -58.76635742 6.22485352 C-53.51895059 5.57319424 -48.27262245 4.91327395 -43.0265646 4.25085354 C-38.98885059 3.74202688 -34.9505641 3.23786701 -30.91209602 2.73506355 C-28.97871455 2.49374259 -27.04551807 2.2509345 -25.1125164 2.00658989 C-22.39906554 1.6642605 -19.68489748 1.32829203 -16.97045898 0.99389648 C-16.17792725 0.89260941 -15.38539551 0.79132233 -14.56884766 0.68696594 C-9.67467988 0.09241714 -4.93062869 -0.0890528 0 0 Z " fill="#0B0B0B" transform="translate(205,63)"/>
<path d="M0 0 C0 8.58 0 17.16 0 26 C-11.31759524 27.44016164 -22.6357678 28.87555387 -33.95501614 30.30266571 C-39.21152017 30.96558821 -44.46774771 31.63055971 -49.72338867 32.30029297 C-54.7996782 32.94709334 -59.87663392 33.58840795 -64.95408821 34.22599792 C-66.88670394 34.46964623 -68.8190758 34.71523743 -70.75118828 34.96284485 C-73.46687851 35.3105264 -76.18337042 35.65115656 -78.90014648 35.99023438 C-79.69065399 36.0930925 -80.4811615 36.19595062 -81.29562378 36.30192566 C-86.64634726 36.95977422 -91.52378698 37 -97 37 C-97 28.75 -97 20.5 -97 12 C-91.19001393 10.70889198 -85.6287495 9.57524878 -79.76147461 8.85498047 C-78.99272507 8.75715271 -78.22397552 8.65932495 -77.43193054 8.55853271 C-74.92259199 8.24042327 -72.41252781 7.92854912 -69.90234375 7.6171875 C-68.1407229 7.39607651 -66.37913178 7.17472847 -64.61756897 6.95315552 C-60.93899746 6.49148738 -57.26005006 6.03297305 -53.58081055 5.57666016 C-48.88067854 4.99343284 -44.18163911 4.40187317 -39.4828558 3.80788994 C-35.85005617 3.34967853 -32.21668558 2.89613149 -28.58313179 2.44394302 C-26.85070862 2.22774113 -25.11846946 2.01005909 -23.38642693 1.7908287 C-20.96122705 1.484528 -18.53531807 1.18459602 -16.10913086 0.88623047 C-15.05139465 0.75068253 -15.05139465 0.75068253 -13.97229004 0.61239624 C-9.21473294 0.03641061 -4.86558693 0 0 0 Z " fill="#0B0B0B" transform="translate(205,23)"/>
<path d="M0 0 C0 8.25 0 16.5 0 25 C-5.63354517 26.25189893 -10.84114235 27.34042553 -16.50415039 28.05322266 C-17.19487137 28.14129684 -17.88559235 28.22937103 -18.59724426 28.32011414 C-20.84686092 28.6057502 -23.09719462 28.88516829 -25.34765625 29.1640625 C-26.9299151 29.36275354 -28.51214423 29.56168148 -30.09434509 29.76083374 C-33.39628991 30.17542217 -36.69860788 30.58686189 -40.0012207 30.99609375 C-44.21708157 31.51878677 -48.43184385 32.04981335 -52.64635563 32.58326149 C-55.90857018 32.99515256 -59.17135516 33.40237274 -62.43432426 33.80823898 C-63.98811787 34.00211256 -65.54172804 34.19746263 -67.09514046 34.39436722 C-69.27127888 34.66954042 -71.44811885 34.93832855 -73.62524414 35.20556641 C-74.85940567 35.35941803 -76.0935672 35.51326965 -77.36512756 35.67178345 C-81.22924023 36.02069961 -85.12016634 36 -89 36 C-89 27.42 -89 18.84 -89 10 C-78.72547664 8.69021163 -68.45037603 7.38520797 -58.17419529 6.08848572 C-53.40196312 5.48609984 -48.63000924 4.88166743 -43.85864258 4.27246094 C-39.24919158 3.68400589 -34.63907428 3.1010536 -30.02845573 2.52182007 C-28.27446904 2.30050208 -26.5207261 2.07724284 -24.76724434 1.85195923 C-22.30061756 1.53539793 -19.83319371 1.22591447 -17.36547852 0.91796875 C-16.64977692 0.82446136 -15.93407532 0.73095398 -15.19668579 0.63461304 C-10.0188057 -0.00094068 -5.31223468 0 0 0 Z " fill="#0B0B0B" transform="translate(94,77)"/>
<path d="M0 0 C0 8.25 0 16.5 0 25 C-5.63354517 26.25189893 -10.84114235 27.34042553 -16.50415039 28.05322266 C-17.19487137 28.14129684 -17.88559235 28.22937103 -18.59724426 28.32011414 C-20.84686092 28.6057502 -23.09719462 28.88516829 -25.34765625 29.1640625 C-26.9299151 29.36275354 -28.51214423 29.56168148 -30.09434509 29.76083374 C-33.39628991 30.17542217 -36.69860788 30.58686189 -40.0012207 30.99609375 C-44.21708157 31.51878677 -48.43184385 32.04981335 -52.64635563 32.58326149 C-55.90857018 32.99515256 -59.17135516 33.40237274 -62.43432426 33.80823898 C-63.98811787 34.00211256 -65.54172804 34.19746263 -67.09514046 34.39436722 C-69.27127888 34.66954042 -71.44811885 34.93832855 -73.62524414 35.20556641 C-74.85940567 35.35941803 -76.0935672 35.51326965 -77.36512756 35.67178345 C-81.22924023 36.02069961 -85.12016634 36 -89 36 C-89 27.42 -89 18.84 -89 10 C-78.72547664 8.69021163 -68.45037603 7.38520797 -58.17419529 6.08848572 C-53.40196312 5.48609984 -48.63000924 4.88166743 -43.85864258 4.27246094 C-39.24919158 3.68400589 -34.63907428 3.1010536 -30.02845573 2.52182007 C-28.27446904 2.30050208 -26.5207261 2.07724284 -24.76724434 1.85195923 C-22.30061756 1.53539793 -19.83319371 1.22591447 -17.36547852 0.91796875 C-16.64977692 0.82446136 -15.93407532 0.73095398 -15.19668579 0.63461304 C-10.0188057 -0.00094068 -5.31223468 0 0 0 Z " fill="#0B0B0B" transform="translate(94,37)"/>
<path d="M0 0 C29.37 0 58.74 0 89 0 C89 6.27 89 12.54 89 19 C83.36645483 20.25189893 78.15885765 21.34042553 72.49584961 22.05322266 C71.80512863 22.14129684 71.11440765 22.22937103 70.40275574 22.32011414 C68.15313908 22.6057502 65.90280538 22.88516829 63.65234375 23.1640625 C62.0700849 23.36275354 60.48785577 23.56168148 58.90565491 23.76083374 C55.60371009 24.17542217 52.30139212 24.58686189 48.9987793 24.99609375 C44.78291843 25.51878677 40.56815615 26.04981335 36.35364437 26.58326149 C33.09142982 26.99515256 29.82864484 27.40237274 26.56567574 27.80823898 C25.01188213 28.00211256 23.45827196 28.19746263 21.90485954 28.39436722 C19.72872112 28.66954042 17.55188115 28.93832855 15.37475586 29.20556641 C14.14059433 29.35941803 12.9064328 29.51326965 11.63487244 29.67178345 C7.77075977 30.02069961 3.87983366 30 0 30 C0 21.09 0 12.18 0 3 C-0.66 2.67 -1.32 2.34 -2 2 C-1.34 2 -0.68 2 0 2 C0 1.34 0 0.68 0 0 Z " fill="#060606" transform="translate(5,3)"/>
<path d="M0 0 C32.01 0 64.02 0 97 0 C97 1.98 97 3.96 97 6 C85.68249002 7.4408076 74.36422953 8.87555421 63.04498386 10.30266571 C57.78847983 10.96558821 52.53225229 11.63055971 47.27661133 12.30029297 C42.2003218 12.94709334 37.12336608 13.58840795 32.04591179 14.22599792 C30.11329606 14.46964623 28.1809242 14.71523743 26.24881172 14.96284485 C23.53312149 15.3105264 20.81662958 15.65115656 18.09985352 15.99023438 C17.30934601 16.0930925 16.5188385 16.19595062 15.70437622 16.30192566 C10.43360072 16.94994495 5.31097873 17.08525964 0 17 C0 11.39 0 5.78 0 0 Z " fill="#0D0D0D" transform="translate(108,3)"/>
<path d="M0 0 C1.65 0 3.3 0 5 0 C5.77206705 12.59577266 6.16407835 25.13147557 6.125 37.75 C6.12411377 38.5867627 6.12322754 39.42352539 6.12231445 40.28564453 C6.09875965 59.5317278 5.59951884 78.76437439 5 98 C5.66 98.33 6.32 98.66 7 99 C3.535 99.495 3.535 99.495 0 100 C-1.65936452 66.67148716 -1.27791316 33.33450071 0 0 Z " fill="#FEA402" transform="translate(94,3)"/>
<path d="M0 0 C1.32 0 2.64 0 4 0 C4 8.25 4 16.5 4 25 C2.68 25 1.36 25 0 25 C0 16.75 0 8.5 0 0 Z " fill="#010101" transform="translate(99,76)"/>
<path d="M0 0 C1.32 0 2.64 0 4 0 C4 8.25 4 16.5 4 25 C2.68 25 1.36 25 0 25 C0 16.75 0 8.5 0 0 Z " fill="#010101" transform="translate(99,36)"/>
<path d="M0 0 C1.32 0 2.64 0 4 0 C4 5.94 4 11.88 4 18 C2.68 18 1.36 18 0 18 C0 12.06 0 6.12 0 0 Z " fill="#000000" transform="translate(99,3)"/>
</svg>
